<svg width="16" height="25" viewBox="0 0 16 25" fill="none" xmlns="http://www.w3.org/2000/svg">
<path d="M5.68182 21.5909H10.2273V20.4545H5.68182V21.5909ZM2.27273 25C1.64773 25 1.1125 24.7773 0.667047 24.3318C0.221593 23.8864 -0.000755646 23.3515 1.92931e-06 22.7273V2.27273C1.92931e-06 1.64773 0.222729 1.1125 0.668183 0.667047C1.11364 0.221593 1.64849 -0.000755646 2.27273 1.92931e-06H13.6364C14.2614 1.92931e-06 14.7966 0.222729 15.242 0.668184C15.6875 1.11364 15.9098 1.64849 15.9091 2.27273V22.7273C15.9091 23.3523 15.6864 23.8875 15.2409 24.333C14.7955 24.7784 14.2606 25.0008 13.6364 25H2.27273ZM2.27273 17.0455H13.6364V5.68182H2.27273V17.0455Z" fill="white"/>
</svg>
