<svg width="25" height="25" viewBox="0 0 25 25" fill="none" xmlns="http://www.w3.org/2000/svg">
<path d="M12.4896 2.0835C6.73956 2.0835 2.08331 6.75016 2.08331 12.5002C2.08331 18.2502 6.73956 22.9168 12.4896 22.9168C18.25 22.9168 22.9166 18.2502 22.9166 12.5002C22.9166 6.75016 18.25 2.0835 12.4896 2.0835ZM16.6666 16.6668C16.5703 16.7634 16.4558 16.84 16.3298 16.8923C16.2038 16.9446 16.0687 16.9715 15.9323 16.9715C15.7958 16.9715 15.6608 16.9446 15.5347 16.8923C15.4087 16.84 15.2943 16.7634 15.1979 16.6668L11.7708 13.2397C11.6724 13.1433 11.5941 13.0282 11.5404 12.9013C11.4868 12.7743 11.4589 12.638 11.4583 12.5002V8.3335C11.4583 7.76058 11.9271 7.29183 12.5 7.29183C13.0729 7.29183 13.5416 7.76058 13.5416 8.3335V12.0731L16.6666 15.1981C17.0729 15.6043 17.0729 16.2606 16.6666 16.6668Z" fill="white"/>
</svg>
