<svg width="25" height="25" viewBox="0 0 25 25" fill="none" xmlns="http://www.w3.org/2000/svg">
<g clip-path="url(#clip0_5_279)">
<path fill-rule="evenodd" clip-rule="evenodd" d="M24.4271 6.196C24.6 5.62725 24.4271 5.2085 23.599 5.2085H20.8646C20.1688 5.2085 19.8479 5.56995 19.674 5.96891C19.674 5.96891 18.2833 9.29808 16.3135 11.4606C15.676 12.0877 15.3865 12.2866 15.0385 12.2866C14.8646 12.2866 14.6031 12.0877 14.6031 11.5179V6.196C14.6031 5.51266 14.4115 5.2085 13.8323 5.2085H9.53229C9.09792 5.2085 8.83646 5.52516 8.83646 5.8262C8.83646 6.47308 9.82187 6.62308 9.92292 8.44391V12.4002C9.92292 13.2679 9.76354 13.4252 9.41562 13.4252C8.48854 13.4252 6.23333 10.0804 4.89479 6.25329C4.63542 5.5085 4.37292 5.2085 3.67396 5.2085H0.9375C0.15625 5.2085 0 5.56995 0 5.96891C0 6.67933 0.927083 10.2085 4.31771 14.8762C6.57812 18.0637 9.76042 19.7918 12.6594 19.7918C14.3979 19.7918 14.6125 19.4085 14.6125 18.747V16.3377C14.6125 15.57 14.7771 15.4168 15.3281 15.4168C15.7344 15.4168 16.4292 15.6168 18.0521 17.1533C19.9062 18.9752 20.2115 19.7918 21.2552 19.7918H23.9896C24.7708 19.7918 25.1625 19.4085 24.9375 18.6502C24.6896 17.896 23.8042 16.8012 22.6302 15.5022C21.9927 14.7627 21.0365 13.9658 20.7458 13.5668C20.3406 13.0554 20.4562 12.8272 20.7458 12.372C20.7458 12.372 24.0792 7.76162 24.426 6.196H24.4271Z" fill="white"/>
</g>
<defs>
<clipPath id="clip0_5_279">
<rect width="25" height="25" fill="white"/>
</clipPath>
</defs>
</svg>
