<svg width="64" height="63" viewBox="0 0 64 63" fill="none" xmlns="http://www.w3.org/2000/svg">
<path d="M23.6749 0C23.4292 0 23.2558 0.0520315 23.1546 0.121407C21.8104 1.11001 21.0733 3.12912 21.1022 5.36358C21.1167 6.42734 21.3335 7.50988 21.6804 8.49559C22.88 7.73246 24.1519 6.99101 25.4816 6.27269C25.4526 6.09925 25.4526 5.9287 25.4526 5.76538C25.4526 4.9878 25.655 4.29838 25.8284 3.66967C26.0019 3.0424 26.1609 2.47294 26.2187 2.05958C26.2765 1.64622 26.2331 1.467 26.1753 1.38751C25.9441 0.998717 25.2503 0.432151 24.571 0.174884C24.2241 0.0462501 23.9206 0 23.6749 0ZM33.1417 6.13683C32.2167 6.11949 31.2195 6.32472 30.1788 6.8248H30.1644C16.1014 13.4198 8.79678 22.3952 4.86117 31.0527C0.919781 39.6957 0.369114 48.0352 0.0352446 53.354C-0.369445 59.8001 2.77991 62.5462 5.93793 62.9509C9.10607 63.3412 12.4159 61.4189 12.7772 56.6638C13.8756 42.1961 18.0815 27.5984 36.7984 14.6917L36.7695 14.7061C38.0558 13.7667 38.5472 12.726 38.6484 11.6565C38.7351 10.587 38.3738 9.43071 37.6222 8.45801C36.6972 7.23527 35.2664 6.30593 33.532 6.15273C33.4019 6.13828 33.2718 6.13394 33.1417 6.13105V6.13683ZM28.8058 10.3413C30.7859 10.3413 32.4191 11.9745 32.4191 13.9546C32.4191 15.9347 30.7859 17.5679 28.8058 17.5679C26.8257 17.5679 25.1925 15.9347 25.1925 13.9546C25.1925 11.9745 26.8257 10.3413 28.8058 10.3413ZM28.8058 12.9428C28.2277 12.9428 27.7941 13.3764 27.7941 13.9546C27.7941 14.5327 28.2277 14.9663 28.8058 14.9663C29.3839 14.9663 29.8175 14.5327 29.8175 13.9546C29.8175 13.3764 29.3839 12.9428 28.8058 12.9428ZM36.3793 18.1894C35.1652 19.071 34.0234 19.9671 32.9394 20.8632L41.2934 29.2171L42.2039 30.1422L40.5562 31.7754L61.181 52.4001C61.4267 52.0388 61.6579 51.6774 61.8603 51.3161C62.6985 49.8708 63.2333 48.4254 63.2767 47.168C63.3345 45.9106 63.0021 44.8266 61.9036 43.7426C53.4051 35.2297 44.8922 26.7023 36.3793 18.1894ZM38.7207 33.6254L35.6566 36.6894L56.7005 57.7333C57.5966 56.8228 58.6227 55.7243 59.62 54.5247L38.7207 33.6254Z" fill="#D4AA61"/>
</svg>
