<svg width="89" height="53" viewBox="0 0 89 53" fill="none" xmlns="http://www.w3.org/2000/svg">
<path d="M80.3019 0.00283849C80.1688 0.0072807 80.0359 0.0152311 79.9033 0.0266817C52.5197 2.36749 25.6158 8.51075 3.25263 20.7712C1.30904 21.8369 0.400839 23.4166 0.0930397 25.7565C-0.214572 28.0966 0.249471 31.1434 1.3535 34.4317C3.45726 40.6991 7.84055 47.7719 12.4902 53L15.7901 52.1068L8.86167 26.0167L12.2435 25.1059L19.1723 51.1906L23.1168 50.1204L16.1885 24.0417L19.5707 23.1252L26.4987 49.2034L30.0212 48.2516L23.099 22.1728L26.4873 21.2564L33.4097 47.3289L37.2135 46.3L30.2855 20.2275L33.6734 19.3107L40.5958 45.3836L44.5407 44.3133L37.6183 18.2464L41.0002 17.3298L47.9227 43.3966L51.8673 42.3322L44.9451 16.2653L48.327 15.3485L55.2557 41.4097L58.9189 40.4219L51.9965 14.3607L55.3784 13.4442L62.301 39.4994L66.5156 38.3583L59.5991 12.3028L62.9871 11.3863L69.9037 37.4414L73.8426 36.377L66.926 10.3219L70.3139 9.40583L77.2305 35.4547L81.0343 34.4256L74.118 8.38245L77.5004 7.466L84.417 33.509L87.7345 32.6101C89.1742 25.7221 89.4684 17.2242 88.1858 10.6534C87.5131 7.20599 86.3945 4.31451 84.9858 2.48652C83.7528 0.887124 82.4565 0.0592299 80.689 0.00283849C80.5628 -0.000946165 80.433 -0.000946165 80.3023 0.00283849H80.3019Z" fill="#D4AA61"/>
</svg>
