<svg width="58" height="63" viewBox="0 0 58 63" fill="none" xmlns="http://www.w3.org/2000/svg">
<path d="M22.8648 30.7268C29.6269 29.419 36.3175 27.7655 42.9103 25.7727V5.72727C42.9103 5.72727 24.2966 0 15.7057 0C11.8813 0.0107649 8.19148 1.41268 5.3248 3.94414C2.45812 6.47559 0.610449 9.96362 0.126597 13.7573C-0.357254 17.551 0.55577 21.3911 2.69528 24.5611C4.8348 27.731 8.05462 30.0142 11.7539 30.9845L14.2739 48.6818H17.1375C17.252 50.0467 17.6913 51.3645 18.4185 52.5251C19.1458 53.6858 20.1401 54.6558 21.3184 55.3541C22.647 56.144 23.7503 57.2619 24.5225 58.6008C25.2947 59.9397 25.71 61.4545 25.7284 63H28.5921C28.5791 61.0273 28.0716 59.0893 27.1161 57.3633C26.1606 55.6374 24.7875 54.1786 23.1225 53.1204C21.118 51.5455 20.0012 50.4859 20.0012 48.6818H22.8648M5.68298 15.75C5.68298 13.0918 6.73894 10.5425 8.61857 8.66286C10.4982 6.78324 13.0475 5.72727 15.7057 5.72727C22.9937 6.41493 30.1911 7.85441 37.183 10.0227V21.4773C30.1911 23.6456 22.9937 25.0851 15.7057 25.7727C13.0475 25.7727 10.4982 24.7168 8.61857 22.8371C6.73894 20.9575 5.68298 18.4082 5.68298 15.75ZM57.2284 20.0455C55.0063 20.1011 52.8103 19.5571 50.8712 18.4705C49.3224 17.5816 47.559 17.1358 45.7739 17.1818V14.3182C47.996 14.2625 50.192 14.8066 52.1312 15.8932C53.6799 16.782 55.4433 17.2278 57.2284 17.1818M57.2284 11.4545C55.4433 11.5006 53.6799 11.0548 52.1312 10.1659C50.192 9.07931 47.996 8.53524 45.7739 8.59091V11.4545C47.559 11.4085 49.3224 11.8543 50.8712 12.7432C52.8103 13.8298 55.0063 14.3739 57.2284 14.3182M57.2284 22.9091C55.4433 22.9551 53.6799 22.5093 52.1312 21.6205C50.192 20.5339 47.996 19.9898 45.7739 20.0455V22.9091C47.559 22.8631 49.3224 23.3089 50.8712 24.1977C52.8103 25.2843 55.0063 25.8284 57.2284 25.7727M20.0012 15.75C20.0012 16.5996 19.7492 17.43 19.2772 18.1364C18.8053 18.8428 18.1344 19.3934 17.3495 19.7185C16.5646 20.0436 15.7009 20.1287 14.8677 19.9629C14.0345 19.7972 13.2691 19.3881 12.6684 18.7873C12.0676 18.1866 11.6585 17.4212 11.4928 16.588C11.327 15.7548 11.4121 14.8911 11.7372 14.1062C12.0623 13.3213 12.6129 12.6505 13.3193 12.1785C14.0257 11.7065 14.8561 11.4545 15.7057 11.4545C16.8449 11.4545 17.9375 11.9071 18.7431 12.7127C19.5486 13.5182 20.0012 14.6108 20.0012 15.75Z" fill="#D4AA61"/>
</svg>
