<svg width="63" height="69" viewBox="0 0 63 69" fill="none" xmlns="http://www.w3.org/2000/svg">
<path d="M16.673 47.0961C11.8217 44.3079 5.17992 46.6842 1.86291 52.3997C0.659791 54.4427 0.017365 56.7643 -4.31338e-07 59.1321C-2.67034e-07 62.891 1.73872 66.1349 4.65728 67.8161C7.09976 69.2192 10.0313 69.3814 12.9058 68.2692C15.5863 67.2317 17.915 65.1901 19.4674 62.5125C20.6744 60.4699 21.3195 58.147 21.3381 55.7775C21.3381 54.0448 20.95 52.4306 20.2669 51.0146L23.8504 44.8357C26.2153 40.7628 33.8377 43.394 41.8456 29.5995C49.8535 15.8103 45.8198 0.0025691 45.8198 0.0025691L17.959 48.0178C17.5553 47.678 17.1336 47.3613 16.673 47.0961ZM14.0857 51.5578C16.3626 52.8606 16.8179 56.7919 14.9861 59.938C14.021 61.6011 12.616 62.8575 11.0326 63.4651C9.64832 64.0058 8.30289 63.9646 7.24465 63.357C5.92509 62.6026 5.17475 61.0605 5.17475 59.1347C5.17475 57.7367 5.57838 56.2976 6.34683 54.9743C8.19939 51.7741 11.7441 50.2113 14.0831 51.5578L14.0857 51.5578ZM30.9605 31.2962C32.2102 31.2962 33.2245 32.3002 33.2245 33.5463C33.2245 33.639 33.1805 33.7188 33.1727 33.8115L29.2606 32.0943C29.4678 31.8449 29.7274 31.6438 30.021 31.505C30.3147 31.3663 30.6354 31.2932 30.9605 31.291L30.9605 31.2962ZM28.6966 33.5463C28.6966 33.4485 28.7406 33.3661 28.7483 33.276L32.6553 34.9906C32.45 35.241 32.1916 35.4431 31.8986 35.5824C31.6056 35.7217 31.2853 35.7948 30.9605 35.7965C29.7108 35.7965 28.6966 34.7924 28.6966 33.5463ZM17.1828 -7.51082e-07C17.1828 -7.51082e-07 13.1465 15.8077 21.1544 29.597C21.9565 30.9795 22.7534 32.1586 23.5451 33.2399L30.0058 22.105L17.1828 -7.51082e-07ZM34.3371 41.7849C36.5363 42.686 38.2388 43.2626 39.1496 44.8383L42.7331 51.0172C42.0189 52.5039 41.6527 54.1323 41.6619 55.7801C41.6619 58.0792 42.3088 60.4065 43.5248 62.5125C46.8444 68.228 53.4914 70.6069 58.3427 67.8161C61.2587 66.1426 63 62.8987 63 59.1347C63 56.8331 62.3532 54.5005 61.1371 52.3997C59.5795 49.7222 57.2509 47.6806 54.5729 46.643C51.6958 45.5308 48.7643 45.6956 46.3192 47.1013C45.8676 47.3687 45.4408 47.6754 45.0436 48.0178L39.0927 37.766C37.6815 39.2963 36.0839 40.6455 34.3371 41.7823L34.3371 41.7849ZM52.6945 51.4394C54.278 52.0521 55.6829 53.3059 56.648 54.9665C58.4747 58.1126 58.0245 62.0465 55.7502 63.3544C53.4138 64.6983 49.8665 63.133 48.0088 59.9354C47.2605 58.6749 46.8573 57.2413 46.8393 55.7775C46.8393 53.8466 47.5896 52.3122 48.9092 51.5553C49.97 50.9451 51.3154 50.9039 52.6971 51.4394L52.6945 51.4394Z" fill="#D4AA61"/>
</svg>
