<?xml version="1.0" standalone="no"?>
<!DOCTYPE svg PUBLIC "-//W3C//DTD SVG 20010904//EN"
 "http://www.w3.org/TR/2001/REC-SVG-20010904/DTD/svg10.dtd">
<svg version="1.0" xmlns="http://www.w3.org/2000/svg"
 width="234.000000pt" height="234.000000pt" viewBox="0 0 234.000000 234.000000"
 preserveAspectRatio="xMidYMid meet">
<metadata>
Created by potrace 1.14, written by Peter Selinger 2001-2017
</metadata>
<g transform="translate(0.000000,234.000000) scale(0.100000,-0.100000)"
fill="#000000" stroke="none">
<path d="M167 1803 c-4 -3 -7 -50 -7 -104 0 -67 -4 -100 -12 -106 -7 -4 -40
-8 -73 -8 l-60 0 -3 -395 c-1 -217 0 -404 3 -416 4 -19 11 -21 75 -20 l71 1
-3 -111 c-2 -69 1 -111 7 -112 6 0 460 -2 1011 -4 662 -2 1001 0 1002 7 0 6 1
58 2 117 1 105 1 107 23 101 26 -6 85 -4 109 3 16 5 18 37 20 409 2 312 0 409
-9 422 -7 9 -13 12 -13 7 0 -5 -29 -10 -65 -9 l-65 0 3 107 c1 82 -1 109 -11
113 -20 8 -1998 6 -2005 -2z"/>
</g>
</svg>
